<?xml version="1.0" encoding="utf-8"?>
<!-- Generator: Adobe Illustrator 22.1.0, SVG Export Plug-In . SVG Version: 6.00 Build 0)  -->
<svg version="1.1" id="Слой_1" xmlns="http://www.w3.org/2000/svg" xmlns:xlink="http://www.w3.org/1999/xlink" x="0px" y="0px"
	 viewBox="0 0 269.1 323.2" style="enable-background:new 0 0 269.1 323.2;" xml:space="preserve">
<style type="text/css">
	.st0{fill:#20C068;}
</style>
<path class="st0" d="M56.9,237.1c0,0-10.6-17.6,1.9-36.3c-11.3-3-27.6-16.5-34.3-14.4s3.6,11.3,8.6,13.6s-20.5-0.5-32.3,14.8
	c-5.9,10.4,19.8-3.9,24.9-3.2s2.3,2.9-5.6,5.4s-22,13.3-18.4,20c4.9,0.8,15.4-10.4,31.6-11.4c-2.3,5.4-15.9,13.9-16.8,19.3
	c-2.8,6,1.4,6.1,3.1,5.6s15.6-12,27.3-12.6C47,238,52.4,236.8,56.9,237.1z"/>
<path class="st0" d="M61.5,204.1c-0.4,0.4-0.8,1-0.6,1.5c0.2,0.4,0.6,0.6,1,0.6c0.4,0,0.8-0.1,1.1-0.3c0.6-0.3,0.9-0.9,1.3-1.4
	c0.4-0.6,2.2-3,0.5-3.1C63.8,201.5,62.2,203.5,61.5,204.1z"/>
<path class="st0" d="M59,208.8c-0.2,0.2-0.4,0.5-0.4,0.8c0,0.4,0.3,0.7,0.6,0.9c0.3,0.2,0.7,0.2,1,0.3c0.6,0,1.1,0,1.7,0
	c0.3,0,0.7-0.1,0.9-0.4c0.2-0.3,0.1-0.7-0.1-1s-0.5-0.4-0.9-0.5C61,208.4,59.8,208.1,59,208.8z"/>
<path class="st0" d="M59,212.9c-0.5,0.1-1,0.3-1.2,0.8c-0.2,0.5-0.1,1.1,0.3,1.4c0.2,0.2,0.5,0.2,0.8,0.3c0.4,0,0.7,0,1.1-0.1
	c0.3-0.1,0.7-0.2,0.9-0.4c0.3-0.2,0.4-0.6,0.4-0.9c0-0.3-0.2-0.5-0.5-0.7c-0.4-0.3-0.9-0.5-1.5-0.5L59,212.9z"/>
<path class="st0" d="M59.2,218.1c-3-0.8-1.3,13,6.4,21.9c0-2.4-4.2-8.1-4.7-16.8C60.8,218.1,60.4,218.4,59.2,218.1z"/>
<path class="st0" d="M74.2,219.5c0,0,2.1-15.9,8.2-20.4c6.6-3.5,32.4-1.9,33.8-0.8s0.8,2.1-4.6,1.6s-24.9-0.6-27.2,0.6
	s-5.8,10.3-6.3,11.8S75.6,223.6,74.2,219.5z"/>
<path class="st0" d="M111.9,203.2c-3,0-16.5,0.1-16.5,0.1s-8.5-0.7-10,2s-4.7,12-4.7,12s-2.9,3.6,2.9,3.6s23.1,0.3,23.1,0.3
	s3.3,0.6,4.1-2.6c0.8-3.2,3.4-13.2,3.4-13.2S114.9,203.2,111.9,203.2z M88.8,219.5c-1.1,0.5-2.3,0.6-3.5,0.4
	c-0.4-0.1-0.9-0.2-1.2-0.4c-2-1.4,0.9-3.5,2.5-3.3c0.9,0.1,2.1,0.5,2.8,1C90.4,218,89.8,219,88.8,219.5z M96.9,215.1
	c0.4,0.8,0.7,1.9,0.2,2.7c-0.3,0.5-0.8,0.8-1.3,1.1c-0.9,0.4-2,0.5-2.8-0.1c-0.7-0.6-0.9-1.6-0.7-2.5c0.2-0.7,0.5-1,1-1.4
	c0.5-0.4,0.1-0.9-0.4-1.2c-0.9-0.6-1.8-1.3-2.6-2.1c-0.5-0.5-0.9-1.1-0.7-1.8c0.2-0.5,0.9-0.8,1.5-0.6s1,0.5,1.5,0.9
	c0.1,0.1,0.2,0.2,0.4,0.2c0.3,0.1,0.5-0.1,0.6-0.4s0-0.5,0-0.8c-0.1-0.4-0.4-0.8-0.6-1.1c-0.4-0.4-1-0.8-1.2-1.3
	c-0.2-0.5,0-1.2,0.5-1.5s1.1-0.4,1.6-0.3c0.5,0.1,1,0.5,1.4,0.8c0.4,0.4,0.7,0.8,1.2,0.9c0.2,0,0.5,0,0.7-0.1
	c0.5-0.2,1.1-0.4,1.5-0.7c0.5-0.3,1-0.6,1.6-0.7c0.4,0,0.7,0,1.1,0.1c0.5,0.2,1,0.5,1.1,1c0.1,0.6-0.5,1-1,1.3
	c-0.8,0.4-1.7,0.6-2.4,1.1s-1.4,1.3-1.2,2.2c0.7,0.5,1.7,0.3,2.5-0.1s1.7-0.8,2.5-0.6c0.3,0.1,0.5,0.2,0.7,0.4
	c0.1,0.2,0.1,0.4,0.1,0.6c0,0.5-0.4,1-0.8,1.3c-0.4,0.3-0.9,0.5-1.5,0.7c-0.8,0.3-1.7,0.5-2.5,0.6c-0.6,0-1.3,0-1.9,0.3
	c-0.1,0-0.1,0.1-0.2,0.1C96.6,214.5,96.8,214.9,96.9,215.1z M106.6,218.8c-0.1,0.3-0.5,0.6-0.8,0.7c-0.9,0.5-2,0.6-3.1,0.5
	c-0.6-0.1-1.1-0.2-1.5-0.6c-0.4-0.4-0.6-1-0.4-1.5c0.7-1.4,3.6-1.3,4.8-1c0.3,0.1,0.6,0.1,0.8,0.4c0.1,0.2,0.2,0.4,0.2,0.6
	C106.7,218.2,106.7,218.5,106.6,218.8z"/>
<path class="st0" d="M137,194c-7.8,0-13.5,0.3-14.9,3.3s-7.6,25.3-9.8,26.9s-33.4-0.5-36.1,1c-2.1,2.4,0.4,3.7,3.1,3.8
	c2.8,0.1,31-0.5,32,0.7s1.4,3.8-2.3,3.6s-30.5-0.1-32.9-0.9s-6.4-3-6.3-8.9s1.6-16.1,5.1-21.4s4.4-7.1,2.8-5.9c0,0-12,7.8-12.3,23.1
	s7.5,24,14.3,26.4s52.2,5.1,54.4,4.3c-3.4-5.4-11.6-15.4-9.2-33.5C128.2,202.9,135.4,195.2,137,194z M119.3,215.9
	c1.1,0,2.3,0.5,3,1.3c0.3,0.3,0.5,0.7,0.3,1.1c-0.1,0.2-0.3,0.4-0.5,0.5c-0.3,0.2-0.6,0.4-0.9,0.4c-0.2,0-0.4,0-0.5-0.1
	c-0.3-0.1-0.6-0.1-0.8-0.2c-0.7-0.2-1.4-0.3-1.8-0.9C117.4,217.1,118.2,215.9,119.3,215.9z M123,226.6c-0.1,0.5-0.2,0.9-0.3,1.3
	c-0.5,1.6-1.4,3.2-3,3.7c-0.8,0.3-1.7,0.2-2.6,0.1c-0.2,0-0.5-0.1-0.7-0.2c-0.2-0.1-0.4-0.4-0.6-0.6c-1.7-2.4-2-5.8-0.7-8.5
	c0.3-0.6,0.6-1.2,1.1-1.6s1.1-0.8,1.8-0.8l1.1-0.2c1.2,0,2.2,0.8,2.9,1.7c0.7,0.9,1,2.1,1.1,3.3C123.1,225.5,123.1,226,123,226.6z
	 M123.2,214.4c-0.2,0.3-0.6,0.4-0.9,0.5c-0.5,0.1-1,0.1-1.5,0c-0.5-0.1-0.9-0.5-1.2-0.9c-0.1-0.1-0.1-0.2-0.1-0.3c0-0.1,0-0.2,0-0.3
	c0.3-1.6,2.7-1,3.5-0.3c0.1,0.1,0.3,0.2,0.3,0.4C123.5,213.7,123.4,214.1,123.2,214.4z M123.8,210.6c-0.3,0.2-0.7,0.2-1.1,0.2
	c-0.4,0-0.7,0-1.1-0.1c-1-0.3-1.8-1.6-0.8-2.4c0.6-0.5,2.1-0.3,2.7,0.1c0.4,0.2,0.7,0.6,0.8,1.1
	C124.3,209.9,124.1,210.4,123.8,210.6z M124.5,206c-1.6,0.1-3-1.3-3.4-2.8c-0.4-1.5,0.1-3.2,0.9-4.6c1.3-2.3,4.7-3.5,6.8-1.3
	c0.7,0.8,0.9,2,0.8,3.1c-0.2,1.1-0.7,2.1-1.3,3C127.3,204.7,126.1,206,124.5,206z"/>
<path class="st0" d="M88.5,191.9c-0.3,0.5-0.2,1.2,0.1,1.6c0.1,0.1,0.2,0.2,0.3,0.3c0.4,0.2,0.9,0.1,1.3,0c0.7-0.2,1.4-0.3,2.1-0.3
	c0.5,0,1.1,0,1.6-0.1c0.5-0.2,1-0.7,0.9-1.2c0-0.2-0.1-0.3-0.2-0.5c-0.3-0.5-0.8-0.7-1.3-0.8c-0.5-0.1-1.1-0.1-1.6-0.1
	C90.6,190.8,89,190.9,88.5,191.9z"/>
<path class="st0" d="M101.8,194.1c0.5,0.3,1.2,0.1,1.8,0c1.2-0.2,2.3-0.1,3.5,0c0.4,0,0.8,0.1,1.2,0s0.7-0.4,0.8-0.7
	c0.1-0.3,0-0.7-0.2-1c-0.2-0.3-0.5-0.5-0.8-0.7c-0.3-0.2-0.6-0.4-0.9-0.6c-1.1-0.5-2.7-0.4-3.9-0.2c-0.9,0.1-1.6,0.8-2,1.6
	C101.1,192.9,101.2,193.7,101.8,194.1z"/>
<path class="st0" d="M116.4,190.4c-0.7,0-1.5,0.2-2.1,0.7c-0.6,0.5-0.9,1.3-0.7,2c0.1,0.2,0.2,0.5,0.3,0.7c0.1,0.2,0.3,0.5,0.6,0.6
	c0.3,0.1,0.6,0.1,0.9,0c1.5-0.1,3,0.3,4.4-0.2c0.4-0.1,0.8-0.3,1-0.7c0.5-0.7,0.2-1.6-0.4-2.2c-0.6-0.6-1.4-0.8-2.2-0.9
	c-0.5-0.1-1.1-0.1-1.6-0.1L116.4,190.4z"/>
<path class="st0" d="M61,196.6c-3.8-1.8-7.5-4-10.7-6.7c4.9,0.2,9.8-0.1,14.6-0.8c-4.5-4.5-8.6-9.4-12.4-14.5
	c5.6,1.1,11.2,1.9,16.9,2.2c-2.9-5.9-5.3-12-7.4-18.2c6.2,2.9,12,6.5,17.3,10.9c-1.7-7.4-4.3-14.5-6.9-21.7c3.8,4.5,7.5,9,11.3,13.6
	c1.8,2.2,3.7,4.4,6,6.1c2.3,1.7,5.2,2.8,8,2.4c3.2-0.4,5.9-2.6,8.4-4.7c4.9-4.2,10-8.5,13-14.2c-1.7,5.4-3.1,10.9-4.4,16.5
	c-0.1,0.5-0.2,1.1,0,1.5c0.3,0.6,1.1,0.7,1.8,0.4c0.6-0.2,1.1-0.8,1.5-1.2c2.7-2.8,5.9-5.1,9.4-6.6c-1.5,2.7-2.1,5.8-1.8,8.8
	c0,0.5,0.1,1,0.5,1.4c0.7,0.7,1.9,0.3,2.8-0.1c4.2-2,8.7-3.1,13.3-3.3c-5.1,3.4-9.4,7.9-12.6,13.2c-0.2,0.4-0.5,0.8-0.5,1.3
	c0,0.5,0.4,1,0.7,1.3c1.9,2,4,3.7,6.4,5.1c-2.6,0.7-5.4,1.5-8.1,0.9c-2.5-0.6-4.6-2.3-7-3c-2.5-0.8-5.4-0.5-7.7,0.9
	c-0.5,0.3-1,0.6-1.5,0.6c-0.5,0-1-0.4-1.4-0.7c-2.8-1.9-6.7-2-9.6-0.3c-0.8,0.5-1.5,1-2.4,1.2c-1.3,0.3-2.6-0.3-3.9-0.8
	c-2.6-0.9-5.7-0.9-7.6,0.9c-0.9,0.9-1.5,2-2.5,2.8c-2.6,2-6.5,0.4-9.4,1.8c-1.3,0.6-2.3,1.6-3.5,2.4c-2.8,1.7-6.3,1.6-9.5,1.6
	L61,196.6z"/>
<path class="st0" d="M113.6,256.2c0,0-5.3,29.5-5.4,31.8s0.6,3.3,2.7,4.9s76.2,35.6,106.9,29.6c6.7-4.5,16-27.5,16-27.5
	s2.5-3.2-4.3-1.8c-6.8,1.3-40.2,0.5-63.3-7.3c-21.3-7.5-34.2-11-34.5-15.2c-0.3-4.2,4.7-14.1-0.7-15.3
	C126.9,254.3,114.3,252.8,113.6,256.2z"/>
<path class="st0" d="M153,251.4c0,0-6.4-1.3-9.5,3.9c-2.8,0.9-3.8-0.7-4.3,1.1c-0.5,1.8-4.1,11.8-0.5,14.1
	c3.6,2.3,35.9,15.7,60.4,16.9s37.4,1.2,39.6-2.8s30.8-60.3,30.4-87.4s-12.3-49.8-28.3-57.5c-1.5,4.4-12,24.7-45.6,31.6
	c-11.7,0.7-13.2-0.3-17.1,4.2c-3.9,4.4-9.8,11.6-6.1,10.3c3.8-1.3,47.9-17.1,47.9-17.1s3.8-1.4,4.7,0.2c0.8,1.6-0.6,3.6-3.6,5.3
	s-56.8,23.4-75.3,24.6c-5.3-0.3-9.5,3.4-10.8,5.7c-1.3,2.3-9,22.3-0.4,37.7c3.9,5.8,14.8,4.3,14.8,4.3s39.3-5.2,55.6-11.2
	c19.5-7.2,32.8-15.7,32.8-15.7s2.3-1.4,3.5,0.4c1.3,1.8-2.4,6.4-6.1,8.3c-3.7,1.8-22.3,13.4-54.2,19.5
	C170.1,249.7,167.9,249.9,153,251.4z"/>
<path class="st0" d="M170,158.2l11.4-8.8c0,0,2.1-1.3,2.8,0.9s3.5,6.2,9.3,5.8s18.7-3.4,25.9-9.5s12.9-8.3,14.5-7.3s0.3,6.3-3.4,9.3
	s-13.9,10-20.6,12.4s-14.3,4.6-16.9,5.1s-10.9,1-12.8,0.5s-18,20.7-18,20.7s-4.6,2.7-9.7,3.4c-5.1,0.8-9,1.6-9.3-0.8
	c-0.3-2.4,0.9-5.7,5.2-10.5S166.3,161.1,170,158.2z"/>
<path class="st0" d="M68.5,117.5c0.5-3.1-1.8-6.4-2.6-9.5c-1.4-5.3-0.6-10.9,0-16.5c0.1-0.8,0.6-1.9,1.4-1.6
	c0.4,0.1,0.6,0.5,0.7,0.9c0.8,2.4,0.2,5,0,7.5c-0.5,8.1,4.4,16.3,11.7,19.8c0.4,0.2,0.8,0.4,1.3,0.4c0.8,0,1.4-0.8,1.6-1.5
	s0.1-1.6,0-2.4c-0.8-5.8-1.3-11.7-1.6-17.6c0-1.2-0.1-2.5,0.5-3.6c1.1,0.4,1.6,1.5,2.1,2.5c2.4,5.8,2.6,12.2,3.3,18.4
	s1.9,12.7,5.9,17.6c0.9,1.1,2.1,2.1,3.5,1.8c1.2-0.3,1.9-1.5,2.3-2.6c1.3-3.3,1.8-7,2.1-10.6c0.4-4.2,0.7-8.5,0.8-12.7
	c0.1-5.1,0-10.4,2.3-14.9c2.7,2.5,2.5,6.8,4,10.2c1.8,4.2,6.1,7,10.5,8.1c2.2,0.6,4.5,0.8,6.5-0.1c1.3-0.6,2.5-1.6,3.5-2.6
	c0.7-0.6,1.5-1.5,1.1-2.4c-0.2-0.5-0.6-0.8-1.1-1c-5.5-3.3-11.6-6.2-15.4-11.4c-1.6-2.2-2.7-4.7-3.8-7.2c-1-2.3-2-4.5-2.9-6.8
	c-0.4-1-0.9-1.9-1.6-2.6c-0.6-0.5-1.5-1.5-2.1-1.9c-3.3-2-3.3-2-5.5-2.9c-2.1-0.8-4.3-1.2-6.6-1.3c-5.4-0.2-11,0.4-16,2.5
	c-5,2.1-9.5,5.6-12.2,10.3c-1.1,2-1.9,4.2-2.6,6.3C58.3,94,58,98.3,58,102.4c-0.1,4,1.4,7.9,4,11c1.9,2.2,6,4.1,6.2,4.2
	C68.5,117.6,68.5,117.5,68.5,117.5z"/>
<path class="st0" d="M246.7,75.6c0-3.1-1.8-2.9-7.9-5.3s-2.9,7-3.5,15.9c-1.5,8.9-17,13-22.5,14.1s-14.3,1-19-2.8s-8.4-17.8-9.1-21
	s-8.1-1.9-8.3,1.1s-0.7,6.5-2.8,9.1s-4.8-5.6-5.6-8.5s-1.6-3.1-1.5-0.5s-2.1,3.2-3.8,3s-2.4-2.3-3.4-2.9s-17.6,0.8-18.8,4.8
	s1.8,15.3,3.9,19.2c-1.1-3.4-1.8-9.8-2.6-14.8s0.5-3.8,3.6-5.3s3.7-0.6,3.7,4.9s1.2,20.5,5.5,20.7c10-0.1,15.3-6.9,16.8-8
	c1.4-1.1,3.8,0.1,5,4c-6,10.1-9.7,9.3-16.3,11c-5,1.3-10.5,1.8-13.7,1.8c-6-0.6-9.4-12.6-11.3-16.8s-4.7-22.5-3.2-22.1
	s3.8-1.5,3.1-2.3s-2.4-6.6-2.5-8.9c-0.1-2.3-1.4-4.1-2.1-4.3S126,56.5,112,47s-38.5-9.9-53.5,6.8s-5,38-5,38
	c4.1-13,12.9-22.3,27.9-25.3c16.1-3.2,27.6,7.1,29.9,12s2.1,0.1,2.4-1.8S111,62,115,63s4.8,11,4.1,18.4s-1.8,11.1,6.4,15.6
	s9.6,8.3,8.9,12.9s-11.1,7.9-15.4,7.1s-1.8,2.4-1.8,2.4s23.7,37,27.9,43.4s5.3,3.3,7.4,1.5s20.1-15.5,21.6-16.4s3.8-1-3.4-4.8
	c-11.8-6-18.3-20-19.8-22.6s0.8-3.1,2.1-3.1s2.4-0.3,5.1,3.8c5.6,12.5,28.5,25,31.4,25.3s4.3,2.1,3.3,2.5s-5,1.1-1.6,2.5
	c8.1,2.1,19.6-5.4,20.5-6.3s2.1,0.1,10.8-4.8c20.6-14.3,24.5-39.3,24.1-40.9s-0.3-2.4,0.3-3.5c7.8,1.3,13-4.5,12.9-10
	S251.4,76.6,246.7,75.6z M166,87.3c-0.1,0.7-0.3,1.4-0.8,2c-0.3,0.5-0.8,0.8-1.3,1.2c-1,0.7-2.1,1.5-3.3,1.3c-1.2-0.2-2-1.3-2.7-2.3
	c-0.3-0.4-0.6-0.9-0.8-1.4c-0.2-0.4-0.3-0.8-0.5-1.2c-0.7-1.5-2.4-2.2-3.8-3.2c-0.4-0.3-0.7-0.6-0.9-1c-0.3-0.7,0-1.4,0.6-1.9
	c0.5-0.5,1.3-0.6,2-0.7c0.7,0,1.4,0.1,1.9,0.5l0.4,0l0.3,0.3c0.7,0,1.3,0.6,1.9,0.9c0.4,0.2,0.8,0.4,1.3,0.5
	c0.8,0.2,1.7,0.1,2.5,0.2c0.8,0,1.7,0.2,2.4,0.7c0.6,0.5,0.9,1.2,1,2C166.2,85.7,166.1,86.5,166,87.3z M179.1,102.4
	c-0.7-0.3-1.4-0.6-2.1-1.1c-0.9-0.6-1.6-1.5-2.3-2.3c-1.4-1.7-2.8-3.7-2.6-5.9c0.1-0.9,0.5-1.8,0.9-2.6c1.3-2.4,3-4.5,3.7-7.1
	c0.4-1.6,0.5-3.2,0.9-4.8c0.1-0.4,0.2-0.8,0.5-1.2c0.6-0.9,1.8-1.2,2.9-1c1,0.2,1.1,1.1,1.2,2c0.3,2.5-0.1,5-1.1,7.3
	c-0.4,0.8-0.8,1.5-1.2,2.3c-0.6,1.2-1.2,2.4-1.7,3.6c-0.1,0.2-0.2,0.5-0.2,0.7c0,0.2,0.1,0.4,0.2,0.6c1.1,2.4,2.9,4.5,5,6.1
	c0.5,0.3,1,0.7,1.3,1.1c0.4,0.4,0.6,1,0.6,1.6c-0.1,0.8-0.9,1.4-1.7,1.5C182.1,103.6,180.5,103,179.1,102.4z M212.8,131.8
	c-0.2,0.5-0.7,0.9-1.2,1.2c-1.9,1.2-4.3,1.2-6.5,1c-0.5,0-1-0.1-1.4-0.3c-0.4-0.1-0.7-0.4-1-0.5c-0.4-0.2-0.8-0.3-1.2-0.5
	c-0.4-0.2-0.8-0.5-0.9-0.9c-0.2-0.4-0.2-0.9-0.1-1.3c0.3-1.2,1.2-2.3,2.5-2.6c1-0.3,2.1-0.1,3.1,0.1c0.7,0.1,1.3,0.3,1.9,0.5
	c0.4,0.1,0.9,0.4,1.4,0.4c0.5,0,1-0.2,1.6-0.2c0.5,0.1,1,0.3,1.4,0.6C212.9,130,213.1,131,212.8,131.8z M230.2,109.5
	c-0.7,1.8-1.5,3.5-2.6,5.1c-0.6,0.9-1.3,1.7-2.3,2c-0.9,0.2-1.8,0-2.6-0.2c-5.5-1.2-11.6-1.5-16.7,1c-1.7,0.9-3.3,2-4.8,3.2
	c-2.7,2-5.4,4-8.1,6.1c-2.1,1.6-4.6,3.3-7.1,2.5c-0.5-0.1-0.9-0.4-1.2-0.8c-0.3-0.6-0.1-1.3,0.2-2c0.6-1.1,1.4-2,2.3-2.9
	c7-7.2,16.7-11.7,26.7-12.5l0.2-0.3c0.2-2.3,1.3-4.5,2.6-6.5c1-1.6,2.2-3.2,3.7-4.2c1.6-1.1,3.7-1.5,5.4-0.8
	c1.2,0.5,2.1,1.4,2.9,2.4c1,1.2,1.9,2.6,2.1,4.1C230.9,107.1,230.6,108.4,230.2,109.5z"/>
<path class="st0" d="M223.9,64.2c-1.1-2-4.7-4.2-9.4-3c-4.8,1.2-8.9,1-11.7,5.1c-2.8,4.1-4.8,6.4-6.3,5.3c0,0-0.1-5.3-2.7-4.3
	c-2.6,1.1-2.5,3.2-1.4,7c1.1,3.8,3.6,13,5.4,15.5c1.8,2.5,6.3,4.5,10.8,3.2c4.4-1.3,16.3-3.2,18.2-7.2S225,66.2,223.9,64.2z
	 M209.5,70.5c-1.1,2,0.5,9.3-3.1,10.2c-3.6,0.8-7.5-3.2-7.5-6.4c0,0,9.7-11.4,11.1-9C211.4,67.7,210.6,68.5,209.5,70.5z"/>
<path class="st0" d="M138.4,71.6c-0.3-0.3-0.5-0.7-0.7-1.1c-0.1-0.4-0.2-0.8-0.2-1.2c-0.1-0.9,0-1.8,0.4-2.7c0.3-0.8,1-1.6,1.8-2
	c0.4-0.2,0.8-0.3,1.2-0.1c0.3,0.1,0.5,0.4,0.6,0.7c0.3,0.7,0.2,1.5,0.1,2.2c-0.1,0.7-0.4,1.5-0.3,2.2c0,0.8,0.3,1.5,0.4,2.2
	c0.1,0.5,0.3,1.5-0.3,1.8c-0.5,0.3-1-0.3-1.4-0.5C139.4,72.7,138.8,72.2,138.4,71.6z"/>
<path class="st0" d="M233.3,55.7c-1.7-0.9-3.3-2-4.6-3.4c-0.4-0.4-0.7-0.8-0.7-1.3c0-0.6,0.6-1.1,1.2-1.2c0.6-0.1,1.2,0,1.8,0.2
	c8.3,2.3,15.9,6.8,22,12.9c-0.5-2.4-2.6-4-4.6-5.4c-6.7-4.6-13.9-8.5-21.3-11.9c-0.9-1.5-1.3-3.3-1.2-5.1c0.1-3.1,1.7-6.3,0.3-9.1
	c-1.2-2.4-4.3-3.4-7-3.3c-6.6,0.1-11.7,6.8-18.5,3.6c-1.2-0.6-2.3-1.4-3.6-2c-3-1.4-6.7-1-9.1,1.2c-2.5,2.3-3.4,6.1-6.2,8.1
	c-2.1,1.5-4.9,1.7-7.4,1.7c-2.5,0-4.6,0-6.8-1.1c-0.1-0.1,0-0.1-0.1-0.1c-0.5,0.2-0.1,0.2-0.2,0.3c-2.9,1.1-4.7,4-5.7,6.9
	c-1.1,2.9-1.5,6-2.8,8.8c-1,2.2-2.5,4.2-4.4,5.8c-1.7,1.4-3.7,2.4-5.1,4.1c-1.4,1.7-2.1,4.3-0.8,6c1.3,0,2.4,0.3,3.7,0
	c0.3-0.1,0.7-0.2,0.8-0.5c0.2-0.5-0.3-0.9-0.6-1.3c-0.8-1-0.7-2.6,0.1-3.6c0.9-1,2.3-1.4,3.6-1c1.3,0.3,2.3,1.3,2.9,2.5
	c0.2,0.4,0.3,0.8,0.6,1.1c0.6,0.7,1.5,0.9,2.4,0.8c0.9-0.1,1.7-0.5,2.5-0.7c2.2-0.7,4.8-0.8,6.9,0c1.6,0.6,2.6,2.6,2.1,4.2
	c2.2-2.5,5.7-3.6,9-3c-0.4-1.4,0.1-3,1-4.2c0.9-1.2,2.1-2.1,3.2-3.1c3.2-2.5,6.8-5.1,10.9-5.4c0.6,0,1.2-0.1,1.5-0.5
	c0.1-0.2,0.2-0.4,0.2-0.7c0.3-2.4,0.6-4.9,2.2-6.7c1.5-1.8,4.7-2.5,6.2-0.7c1.5,1.7,0.7,4.4-0.7,6.1c3.6-0.9,7.3-1.7,11-2.3
	c3.7-0.6,8-0.9,10.6,1.8c0.8,0.8,1.4,1.8,2.4,2.4c0.6,0.4,1.3,0.5,2,0.7c2.4,0.6,4.7,1.4,7,2.5C238.4,57.7,235.7,56.9,233.3,55.7z
	 M177.2,65.1c-0.2,0.4-0.7,0.4-1.1,0.3c-0.8-0.2-1.4-0.8-1.9-1.3c-0.4-0.5-0.8-0.9-1.2-1.4c-0.4-0.5-0.9-1-1.2-1.6
	c-0.9-1.4-1.5-2.9-1.9-4.5c-0.3-1.1-0.5-2.3-0.5-3.5c0-0.6,0.1-1.1,0.3-1.6c0.2-0.4,0.6-0.9,1.1-0.9c0.5,0,0.9,0.6,1.1,1
	c1,2.2,1.4,4.6,2.2,6.9c0.5,1.3,1.1,2.5,1.8,3.8c0.3,0.6,0.6,1.2,1,1.7C177.1,64.2,177.4,64.7,177.2,65.1z M183.7,51
	c-0.5,0.9-0.8,1.9-1.1,3c-0.6,2.7-0.9,5.5-0.6,8.3c0.1,1,0.2,2.1-0.1,3.1c0,0.1-0.1,0.3-0.2,0.3c-0.2,0.2-0.4,0.2-0.6,0.1
	s-0.4-0.3-0.5-0.5c-0.9-1.3-1.1-2.9-1.3-4.5c-0.2-2.2-0.4-4.4-0.1-6.6c0.1-1.2,0.4-2.4,0.9-3.5c0.6-1.4,1.9-4.3,3.9-3.9
	C186.2,47.1,184.2,50,183.7,51z"/>
<path class="st0" d="M131.3,33.3c-2,2.3-2.5,5.5-2.7,8.5c-0.2,3.4,0,6.9,1.5,10c0.4,0.9,1,1.7,1.6,2.5c2.7,3.4,6.7,5.8,11.1,6
	c4.3,0.2,8.8-1.9,11-5.6c1.9-3.2,2.2-7.1,3.5-10.6c0.7-1.8,1.7-3.5,2.9-5c1.3-1.7,2.8-3.2,4.7-4.1s4.3-1,6,0.2
	c0.1,0.1,0.3,0.2,0.4,0.1c0.1,0,0.2-0.3,0-0.3c1.6,0.5,3.4,1.3,5,1.8c0.4,0.1,0.8,0.3,1.3,0.2c0.7-0.1,1.2-0.7,1.6-1.2
	c2-2.7,3.5-5.9,6-8.1c2.9-2.6,7.1-3.6,10.8-2.6c1.8,0.5,3.4,1.3,4.9,2.3c0.9,0.6,1.8,1.2,2.9,1.2c0.6,0,1.2-0.1,1.8-0.3
	c2.6-0.9,5-2.4,7.4-3.8c2.5-1.3,5.1-2.4,7.9-2.3c4.9,0.2,11.4,4.3,12.4,9.4c0.5,2.3,0.2,4.7-0.1,7c-0.3,2.3-0.5,4.5-0.8,6.8
	c2-0.4,4.1,0.7,5.8,1.7c5.6,3.4,11.2,7.1,16.2,11.4c0.1,0.1,0-0.3,0-0.1c1-2.7,0.5-5.9,0-8.7c-2.1-11.3-7.1-22.6-16.5-29.2
	c-3.5-2.4-7.4-4.1-11.5-5.3c-1.2-0.4-2.4-0.7-3.4-1.5c-1-0.8-1.6-2.2-1-3.3c0.7,0,1.3,0.2,1.9,0.5c-3.2-4.4-8-8-13.5-8.3
	c-4.8-0.2-9.3,2.1-13.9,3.3c-3,0.8-6.6,1-8.9-1.1c1.8-1.5,4.6-0.4,7-0.8c0.5-0.1,1-0.4,1-0.8c0-0.3-0.4-0.5-0.7-0.7
	c-3.1-1.6-6.6-3.1-10-2.2c-3.2,0.9-5.4,3.9-6.7,7s-2.2,6.4-4,9.1c-1.8,2.7-4.4,4.7-7.5,5.7c-2.5,0.8-5.2,1-7.3,2.4
	c-2.6,1.7-3.8,4.7-4.7,7.6c-0.8,2.9-1.6,5.2-3.3,7.8c-1.8,2.6-4.5,3.9-7.7,4.2c-3.2,0.3-6-0.7-8.2-2.9c-2.4-2.4-2.7-4.3-3.8-7.5
	C132,34.2,131.7,32.8,131.3,33.3z"/>
<path class="st0" d="M219.1,108.4c0.3-0.9,0.8-1.7,1.3-2.6c0.8-1.4,1.7-2.9,3.1-3.6c0.4-0.2,0.9-0.4,1.3-0.2c0.4,0.2,0.6,0.6,0.7,1
	c0.3,0.9,0.3,1.9,0.3,2.9c0,1.1,0,2.2,0,3.3c0,0.7,0,1.3-0.1,2c-0.1,0.4-0.2,0.8-0.5,1.1s-0.9,0.2-1.1-0.1c-0.1-0.2-0.1-0.5-0.1-0.7
	c0-0.9,0-1.6,0-2.4c0-0.7,0.1-1.3-0.2-1.7c-0.3-0.4-1.2-0.4-1.6-0.1c-0.4,0.2-0.5,0.8-0.7,1.2c-0.2,0.8-0.8,3.1-1.9,3
	C218.3,111.3,218.9,109,219.1,108.4z"/>
</svg>
